{"accessors" : [{"bufferView" : 0, "byteOffset" : 0, "componentType" : 5123, "count" : 6, "type" : "SCALAR", "max" : [3], "min" : [0]}, {"bufferView" : 1, "byteOffset" : 0, "componentType" : 5126, "count" : 4, "type" : "VEC3", "max" : [0.0889999270439148, 0.08899994939565659, 2.3801295156999913E-08], "min" : [-0.0889999270439148, -0.08899994939565659, -1.3563512091252505E-08], "name" : "POSITION"}, {"bufferView" : 0, "byteOffset" : 12, "componentType" : 5123, "count" : 6, "type" : "SCALAR", "max" : [3], "min" : [0]}, {"bufferView" : 2, "byteOffset" : 0, "componentType" : 5126, "count" : 4, "type" : "VEC3", "max" : [0.0889999270439148, 0.0889999270439148, 0], "min" : [-0.0889999195933342, -0.0889999270439148, 0], "name" : "POSITION"}, {"bufferView" : 0, "byteOffset" : 24, "componentType" : 5123, "count" : 24000, "type" : "SCALAR", "max" : [4145], "min" : [0]}, {"bufferView" : 3, "byteOffset" : 0, "componentType" : 5126, "count" : 4146, "type" : "VEC3", "max" : [0.9961046576499939, 1.011396884918213, 0.513184666633606], "min" : [-0.9961046576499939, -0.9921656250953674, 0.0035006387624889612], "name" : "POSITION"}, {"bufferView" : 3, "byteOffset" : 12, "componentType" : 5126, "count" : 4146, "type" : "VEC2", "max" : [0.9835739731788635, 0.9998440146446228], "min" : [0.015402000397443771, 0.11086398363113403], "name" : "TEXCOORD_0"}, {"bufferView" : 0, "byteOffset" : 48024, "componentType" : 5123, "count" : 24000, "type" : "SCALAR", "max" : [4145], "min" : [0]}, {"bufferView" : 4, "byteOffset" : 0, "componentType" : 5126, "count" : 4146, "type" : "VEC3", "max" : [0.9961045384407043, 1.011396884918213, 0.5131846070289612], "min" : [-0.9961045384407043, -0.9921655654907227, 0.0035006701946258545], "name" : "POSITION"}, {"bufferView" : 4, "byteOffset" : 12, "componentType" : 5126, "count" : 4146, "type" : "VEC2", "max" : [0.9836210012435913, 0.9998440146446228], "min" : [0.01246699970215559, 0.0015040040016174316], "name" : "TEXCOORD_0"}], "asset" : {"generator" : "Aspose.3D 24.9.1", "version" : "2.0"}, "buffers" : [{"uri" : "data:application/octet-stream;base64,", "byteLength" : 261980}], "bufferViews" : [{"buffer" : 0, "byteOffset" : 0, "byteLength" : 96024, "target" : 34963}, {"buffer" : 0, "byteOffset" : 96028, "byteLength" : 48, "byteStride" : 12, "target" : 34962}, {"buffer" : 0, "byteOffset" : 96080, "byteLength" : 48, "byteStride" : 12, "target" : 34962}, {"buffer" : 0, "byteOffset" : 96132, "byteLength" : 82920, "byteStride" : 20, "target" : 34962}, {"buffer" : 0, "byteOffset" : 179056, "byteLength" : 82920, "byteStride" : 20, "target" : 34962}], "materials" : [{"name" : "Material.002", "pbrMetallicRoughness" : {"baseColorFactor" : [0.8, 0.8, 0.8, 1], "metallicFactor" : 1, "roughnessFactor" : 1}, "emissiveFactor" : [0, 0, 0], "alphaMode" : "OPAQUE", "doubleSided" : false}, {"name" : "Material.001", "pbrMetallicRoughness" : {"baseColorFactor" : [0.8, 0.8, 0.8, 1], "metallicFactor" : 1, "roughnessFactor" : 1}, "emissiveFactor" : [0, 0, 0], "alphaMode" : "OPAQUE", "doubleSided" : false}, {"name" : "Material", "pbrMetallicRoughness" : {"baseColorFactor" : [0.8, 0.8, 0.8, 1], "metallicFactor" : 1, "roughnessFactor" : 1}, "emissiveFactor" : [0, 0, 0], "alphaMode" : "OPAQUE", "doubleSided" : false}], "meshes" : [{"primitives" : [{"attributes" : {"POSITION" : 1}, "indices" : 0, "material" : 0, "mode" : 4}], "name" : "Plane.001"}, {"primitives" : [{"attributes" : {"POSITION" : 3}, "indices" : 2, "material" : 1, "mode" : 4}], "name" : "Plane"}, {"primitives" : [{"attributes" : {"POSITION" : 5, "TEXCOORD_0" : 6}, "indices" : 4, "material" : 2, "mode" : 4}], "name" : "Cover"}, {"primitives" : [{"attributes" : {"POSITION" : 8, "TEXCOORD_0" : 9}, "indices" : 7, "material" : 2, "mode" : 4}], "name" : "Box"}], "nodes" : [{"mesh" : 0, "name" : "Plane.001"}, {"mesh" : 1, "name" : "Plane"}, {"mesh" : 2, "name" : "Cover"}, {"mesh" : 3, "name" : "Box"}], "scene" : 0, "scenes" : [{"nodes" : [0, 1, 2, 3]}]}